<svg xmlns="http://www.w3.org/2000/svg" width="16.801" height="12.801"><path d="M10.636 12.8v-2.03h1.232a.871.871 0 0 0 .64-.262.885.885 0 0 0 .263-.652V8.709c0-.585.193-1.086.579-1.504a2.338 2.338 0 0 1 1.456-.742V6.38a2.677 2.677 0 0 1-1.456-.795 2.102 2.102 0 0 1-.58-1.494V2.933a.871.871 0 0 0-.262-.64.871.871 0 0 0-.64-.263h-1.232V0h1.62c.704 0 1.304.248 1.8.745.497.496.745 1.1.745 1.811v1.147a.89.89 0 0 0 .263.646.876.876 0 0 0 .652.269H16.8v3.565h-1.085a.885.885 0 0 0-.652.263.871.871 0 0 0-.263.64v1.159c0 .711-.248 1.315-.745 1.811a2.452 2.452 0 0 1-1.8.745zm-6.092 0a2.452 2.452 0 0 1-1.8-.744A2.466 2.466 0 0 1 2 10.245V9.086a.871.871 0 0 0-.263-.64.871.871 0 0 0-.64-.263H0V4.618h1.097c.252 0 .465-.09.64-.269A.89.89 0 0 0 2 3.703V2.556c0-.711.248-1.315.745-1.811A2.452 2.452 0 0 1 4.545 0h1.62v2.03h-1.22a.89.89 0 0 0-.646.263.862.862 0 0 0-.269.64v1.158c0 .6-.193 1.108-.579 1.525a2.328 2.328 0 0 1-1.445.743v.086a2.204 2.204 0 0 1 1.445.729c.386.425.579.936.579 1.535v1.147c0 .26.09.477.269.652a.89.89 0 0 0 .646.263h1.22v2.03z" fill="#111" stroke-miterlimit="10"/></svg>