<svg xmlns="http://www.w3.org/2000/svg" width="18.73" height="10.73"><path d="M5.365 10.73c-1.49 0-2.757-.522-3.8-1.565C.522 8.122 0 6.855 0 5.365c0-1.491.522-2.758 1.565-3.8C2.608.52 3.875 0 5.365 0h8c1.49 0 2.757.522 3.8 1.565 1.043 1.043 1.565 2.31 1.565 3.8 0 1.491-.522 2.758-1.565 3.8-1.043 1.044-2.31 1.565-3.8 1.565zm8-2.865a2.41 2.41 0 0 0 1.77-.73 2.41 2.41 0 0 0 .73-1.77 2.41 2.41 0 0 0-.73-1.77 2.41 2.41 0 0 0-1.77-.73 2.41 2.41 0 0 0-1.77.73 2.41 2.41 0 0 0-.73 1.77c0 .694.243 1.285.73 1.77a2.41 2.41 0 0 0 1.77.73z" fill="#111" stroke-miterlimit="10"/></svg>