<svg xmlns="http://www.w3.org/2000/svg" width="14.407" height="14.407"><path d="M5.636 11.083c-1.562.024-2.891-.505-3.99-1.588C.55 8.413 0 7.095 0 5.542c0-1.538.54-2.847 1.617-3.925C2.695.54 4.004 0 5.542 0c1.553 0 2.873.55 3.96 1.653 1.085 1.101 1.613 2.433 1.581 3.995l-1.886-.606a3.561 3.561 0 0 0-1.23-2.27 3.583 3.583 0 0 0-2.425-.907c-1.02 0-1.887.358-2.603 1.074-.716.716-1.074 1.583-1.074 2.603 0 .922.3 1.728.901 2.42A3.599 3.599 0 0 0 5.03 9.196zm7.166 3.324L9.26 10.833l-1.137 3.003-2.582-8.294 8.294 2.582-3.003 1.116 3.574 3.562z" fill="#111" stroke-miterlimit="10"/></svg>