<svg xmlns="http://www.w3.org/2000/svg" width="15.625" height="14.777"><path d="M5.636 12.695v-1.806h1.623l2.18-2.465-2.18-2.453h-1.24l-1.31 6.614c-.15.66-.46 1.19-.928 1.59-.468.402-.992.602-1.573.602a2.168 2.168 0 0 1-1.563-.622C.215 13.739 0 13.26 0 12.72c0-.372.115-.686.345-.94.23-.253.524-.38.885-.38.333 0 .605.107.817.32.212.213.318.482.318.809 0 .06-.008.134-.025.224s-.043.175-.076.256a.16.16 0 0 0 .062.021h.063c.138.008.244-.033.317-.122a.892.892 0 0 0 .159-.39L4.192 5.97H2.2V4.165h2.342l.403-1.855c.158-.714.465-1.278.922-1.69.456-.414.987-.62 1.59-.62.62 0 1.146.2 1.576.6.43.399.644.873.644 1.422 0 .388-.114.709-.344.963-.23.253-.525.38-.886.38-.332 0-.605-.106-.817-.32a1.085 1.085 0 0 1-.318-.797c0-.06.009-.134.026-.223.017-.09.042-.175.076-.257a.16.16 0 0 0-.063-.02H7.29a.34.34 0 0 0-.317.116.854.854 0 0 0-.171.396L6.37 4.165h3.796v1.806h-.557l1.021 1.18 1.034-1.18h-.569V4.165h4.53v1.806h-1.602L11.81 8.424l2.224 2.465h1.591v1.806h-4.53v-1.806h.569L10.63 9.72 9.597 10.89h.569v1.806z" fill="#111" stroke-miterlimit="10"/></svg>