<svg xmlns="http://www.w3.org/2000/svg" width="14.801" height="14.801"><path d="M4.971 11.33h1v-1.5h1.5v-1h-1.5v-1.5h-1v1.5h-1.5v1h1.5zm3.359-.75h3v-1h-3zm0-1.5h3v-1h-3zM3.47 5.67h3v-1h-3zm-1.43 9.13a1.97 1.97 0 0 1-1.447-.594A1.97 1.97 0 0 1 0 12.76V2.042C0 1.472.198.99.594.594A1.97 1.97 0 0 1 2.042 0h10.717c.57 0 1.052.198 1.448.594.396.396.594.878.594 1.448v10.717a1.97 1.97 0 0 1-.594 1.448 1.97 1.97 0 0 1-1.448.594zm6.726-7.81 1.063-1.04 1.062 1.062.709-.709-1.063-1.062 1.063-1.063-.709-.708L9.83 4.534 8.767 3.47l-.708.708 1.062 1.042L8.06 6.284z" fill="#111" stroke-miterlimit="10"/></svg>