<svg xmlns="http://www.w3.org/2000/svg" width="17.437" height="12.325"><path d="M2.566 12.325A8.49 8.49 0 0 1 0 6.182c0-1.219.226-2.352.678-3.4A9.048 9.048 0 0 1 2.545 0l1.31 1.31A7.18 7.18 0 0 0 2.392 3.5a6.626 6.626 0 0 0-.539 2.66c0 .959.18 1.852.54 2.68.359.83.853 1.554 1.483 2.176zM4.8 10.092a5.754 5.754 0 0 1-1.186-1.76 5.31 5.31 0 0 1-.437-2.147c0-.78.147-1.503.44-2.17A5.902 5.902 0 0 1 4.8 2.255l1.31 1.31c-.335.33-.596.72-.785 1.17-.189.45-.283.93-.283 1.442 0 .512.094.992.283 1.44.189.448.45.836.785 1.165zM8.71 8.288a2.02 2.02 0 0 1-1.491-.623 2.055 2.055 0 0 1-.617-1.499c0-.583.208-1.08.624-1.492.415-.41.915-.616 1.498-.616.584 0 1.081.208 1.492.623.41.416.616.916.616 1.499a2.02 2.02 0 0 1-.623 1.492c-.416.41-.915.616-1.499.616zm3.905 1.783-1.289-1.29c.333-.338.595-.73.784-1.177.19-.447.284-.925.284-1.433a3.62 3.62 0 0 0-.284-1.43 3.748 3.748 0 0 0-.784-1.177l1.31-1.31c.5.506.895 1.092 1.186 1.76.291.667.437 1.392.437 2.175a5.29 5.29 0 0 1-.437 2.147 5.348 5.348 0 0 1-1.207 1.735zm2.255 2.254-1.31-1.31a6.76 6.76 0 0 0 1.484-2.17c.359-.831.538-1.719.538-2.664 0-.957-.18-1.849-.54-2.676a7.358 7.358 0 0 0-1.461-2.195L14.892 0a9.033 9.033 0 0 1 1.867 2.786c.452 1.051.678 2.185.678 3.403a8.474 8.474 0 0 1-2.566 6.136z" fill="#111" stroke-miterlimit="10"/></svg>