<svg xmlns="http://www.w3.org/2000/svg" width="14.966" height="14.088"><path d="M9.29 14.088v-1.763a5.363 5.363 0 0 0 2.889-1.965 5.328 5.328 0 0 0 1.11-3.306 5.21 5.21 0 0 0-1.12-3.284 5.815 5.815 0 0 0-2.88-2.007V0c1.658.355 3.019 1.191 4.082 2.508 1.063 1.317 1.595 2.826 1.595 4.526 0 1.7-.528 3.211-1.585 4.535-1.056 1.324-2.42 2.164-4.092 2.519zM0 9.434v-4.8h3.236L7.789.08v13.907L3.236 9.434zm9.29.887V3.746a3.775 3.775 0 0 1 1.58 1.33c.397.585.596 1.238.596 1.958s-.199 1.37-.596 1.952a3.853 3.853 0 0 1-1.58 1.335z" fill="#111" stroke-miterlimit="10"/></svg>